<svg width="170" height="84" viewBox="0 0 170 84" fill="none" xmlns="http://www.w3.org/2000/svg">
<path fill-rule="evenodd" clip-rule="evenodd" d="M48.3741 0.546183C48.2368 0.901679 48.1886 2.07974 48.2668 3.16429L48.4091 5.13556H51.5909H54.7727V2.65115V0.166749L51.6982 0.0330406C49.3577 -0.0685941 48.5641 0.0538199 48.3741 0.546183ZM100 4.84691V9.30077L97.7582 9.56456C93.5105 10.0646 89.8214 12.8593 88.6155 16.4911C87.8432 18.8165 87.8195 24.0861 88.57 26.6568C89.7373 30.6567 92.8682 33.2775 97.7123 34.3097L100 34.7975V39.0513V43.305H103.182H106.364V39.0459V34.7867L108.75 34.2902C114.033 33.1921 117.22 30.0754 118.169 25.0799C119.756 16.7188 115.874 10.4201 108.605 9.56456L106.364 9.30077V4.84691V0.392604H103.182H100V4.84691ZM18.1786 7.39727L12.9632 12.5951L25.5723 25.126L38.1818 37.6564V19.9281V2.19944H30.7882H23.3941L18.1786 7.39727ZM134.216 9.3997C133.41 9.598 132.234 10.0962 131.602 10.5073C130.505 11.2214 130.455 11.2138 130.455 10.3406C130.455 9.51036 130.164 9.4268 127.273 9.4268H124.091V26.3659V43.305H127.273H130.455V37.8538V32.4026L131.78 33.3399C134.698 35.4051 139.917 34.8955 142.54 32.2892C144.505 30.3355 144.995 28.2541 144.995 21.8488C144.995 15.7589 144.568 13.6729 142.922 11.7296C141.272 9.78094 137.153 8.67877 134.216 9.3997ZM155.948 9.44532C154.029 9.83876 150.455 11.8037 150.455 12.465C150.455 12.6385 151.313 13.6498 152.362 14.7123L154.27 16.6442L155.354 15.6328C156.219 14.8247 156.969 14.6215 159.08 14.6215C162.267 14.6215 163.636 15.5723 163.636 17.7852V19.228L159.335 19.509C154.551 19.8211 152.593 20.4648 150.909 22.2788C149.895 23.3715 149.773 23.8892 149.773 27.1144C149.773 30.6974 149.786 30.7389 151.441 32.2458C154.358 34.9023 159.151 35.3906 162.58 33.3805C164.081 32.5001 164.091 32.5001 164.091 33.3828C164.091 34.1746 164.411 34.2708 167.045 34.2708H170V24.8807C170 16.0376 169.94 15.3736 168.977 13.4872C168.225 12.0128 167.415 11.2192 165.909 10.4806C163.541 9.31929 158.91 8.83777 155.948 9.44532ZM48.6364 21.8488V34.2708H51.5909H54.5455V21.8488V9.4268H51.5909H48.6364V21.8488ZM61.8182 21.8488V34.2708H64.7573H67.6964L67.8255 29.4149L67.9545 24.5591L71.9318 24.4285L75.9091 24.298V29.2844V34.2708H79.0909H82.2727V21.8488V9.4268H79.0909H75.9091V14.1874V18.9479L71.9318 18.8174L67.9545 18.6868L67.825 14.0568L67.6954 9.4268H64.7568H61.8182V21.8488ZM100 21.8488V28.8503H98.8986C93.6795 28.8503 92.445 17.2992 97.4491 15.29C100.005 14.2637 100 14.252 100 21.8488ZM110.52 16.6072C111.924 18.1367 112.497 20.8216 112.051 23.7776C111.671 26.2927 109.4 28.8503 107.545 28.8503H106.364V21.7923V14.7344L107.841 15.0158C108.654 15.1703 109.859 15.8862 110.52 16.6072ZM137.225 15.6378C138.608 16.7739 139.302 20.9793 138.684 24.4687C138.072 27.918 137.242 28.8503 134.781 28.8503C131.927 28.8503 130.852 27.4843 130.565 23.4912C130.273 19.4457 130.702 17.2707 132.055 15.926C133.368 14.621 135.821 14.4841 137.225 15.6378ZM5.10636 20.388L0 25.4765V32.81V40.1431H17.8377H35.6755L23.1818 27.721C16.3105 20.8889 10.5809 15.299 10.4505 15.299C10.3195 15.299 7.91454 17.5892 5.10636 20.388ZM163.636 25.6883C163.636 27.8317 162.425 29.2776 160.568 29.3522C156.963 29.4963 155.455 28.6692 155.455 26.5475C155.455 24.6444 156.915 23.8815 160.556 23.8815H163.636V25.6883ZM0 51.1042V58.4522L5.23046 63.6351L10.4609 68.818L23.0705 56.2876L35.6795 43.7567H17.84H0V51.1042ZM25.4568 58.8867L12.965 71.3065L18.1795 76.5034L23.3941 81.7003H30.7882H38.1818V64.0837C38.1818 54.3945 38.1291 46.467 38.065 46.467C38.0009 46.467 32.3273 52.056 25.4568 58.8867ZM48.29 66.681L48.4091 83.733L51.4773 83.8667L54.5455 84V78.3026V72.6047L55.9673 73.6107C58.8327 75.6384 64.2509 75.1478 66.7832 72.6314C68.6782 70.7482 69.1923 68.4187 69.1832 61.7587C69.1736 55.1574 68.4409 52.7769 65.8527 50.9425C64.5332 50.007 63.7991 49.8548 60.6159 49.8548C57.7277 49.8548 56.7205 50.0287 56.0345 50.6453C54.8959 51.6693 54.5455 51.6427 54.5455 50.5324C54.5455 49.7148 54.2423 49.629 51.3582 49.629H48.1709L48.29 66.681ZM77.9545 50.2754C77.2045 50.6336 76.0795 51.336 75.4545 51.836L74.3182 52.7449L76.3127 54.7681L78.3068 56.7913L79.6459 55.8074C80.6318 55.0834 81.6314 54.8236 83.4345 54.8236C86.3759 54.8236 87.7668 55.8996 87.8809 58.2638L87.9546 59.7924L83.1818 60.0183C77.7918 60.2735 75.9668 60.9687 74.5273 63.3153C73.4623 65.0508 73.33 68.9635 74.275 70.769C75.8373 73.753 79.0186 75.1984 83.1027 74.7797C84.5977 74.6261 86.14 74.1392 86.9009 73.5804C88.18 72.6404 88.1818 72.6404 88.1818 73.556C88.1818 74.384 88.47 74.473 91.1605 74.473H94.1391L94.0014 64.4224C93.8705 54.8638 93.8141 54.3028 92.85 52.9594C91.1959 50.6552 89.0368 49.8828 83.8636 49.7446C80.6223 49.6583 78.9268 49.8105 77.9545 50.2754ZM103.178 54.7107C103.175 60.3291 102.618 64.5625 101.527 67.2714C100.924 68.7702 100.602 69.0525 99.4959 69.0525H98.1818V74.9247V80.7969H101.136H104.091V77.635V74.473H111.136H118.182V77.635V80.7969H121.136H124.091V74.9247V69.0525H122.5H120.909V59.3407V49.629H112.045H103.182L103.178 54.7107ZM131.591 50.2754C130.841 50.6336 129.716 51.336 129.091 51.836L127.955 52.7449L129.949 54.7681L131.943 56.7913L133.282 55.8074C134.268 55.0834 135.268 54.8236 137.071 54.8236C139.994 54.8236 141.265 55.8043 141.462 58.2114L141.591 59.7924L136.591 60.0183C132.3 60.2121 131.38 60.3932 130.107 61.2962C127.881 62.8735 127.145 64.6379 127.353 67.892C127.664 72.7511 130.004 74.6988 135.53 74.6988C138.445 74.6988 139.244 74.5304 140.416 73.6689C141.788 72.6616 141.818 72.6589 141.818 73.556C141.818 74.3836 142.107 74.473 144.773 74.473H147.727L147.72 64.8742C147.713 55.7767 147.659 55.1832 146.697 53.5082C145.124 50.7704 142.946 49.8778 137.5 49.7392C134.268 49.657 132.56 49.8119 131.591 50.2754ZM61.32 55.84C63.5277 57.6459 63.7205 65.5964 61.6154 68.0285C60.3436 69.4974 57.8109 69.6763 56.3886 68.3975C53.8759 66.1376 53.94 57.5099 56.4823 55.7401C57.8082 54.8173 60.1286 54.8652 61.32 55.84ZM114.898 62.1639L115.024 69.0525H111.168H107.313L108.01 67.1327C108.394 66.0771 108.81 63.1802 108.935 60.6958C109.061 58.2114 109.247 55.9145 109.349 55.5915C109.48 55.1769 110.305 55.0441 112.154 55.1398L114.773 55.2753L114.898 62.1639ZM87.8464 66.0753C87.7091 68.3067 86.7545 69.3592 84.5282 69.7328C81.4823 70.2445 79.13 68.5 79.7195 66.1665C80.1223 64.572 81.3968 64.1013 85 64.2156L87.9546 64.3095L87.8464 66.0753ZM141.585 64.525C141.735 64.7676 141.633 65.7993 141.357 66.8179C140.951 68.3175 140.543 68.7986 139.209 69.3529C136.454 70.497 133.182 69.2395 133.182 67.036C133.182 65.9312 133.992 64.7549 135 64.3972C136.204 63.9694 141.3 64.0683 141.585 64.525Z" fill="white"/>
</svg>
